<?xml version="1.0" encoding="utf-8"?>
<!-- Generator: Adobe Illustrator 16.0.0, SVG Export Plug-In . SVG Version: 6.00 Build 0)  -->
<!DOCTYPE svg PUBLIC "-//W3C//DTD SVG 1.1//EN" "http://www.w3.org/Graphics/SVG/1.1/DTD/svg11.dtd">
<svg version="1.1" xmlns="http://www.w3.org/2000/svg" xmlns:xlink="http://www.w3.org/1999/xlink" x="0px" y="0px" width="14px"
	 height="14px" viewBox="0.5 -427.5 14 14" enable-background="new 0.5 -427.5 14 14" xml:space="preserve">
<g id="Capa_2" display="none">
	<rect y="-428.688" display="inline" fill="#020202" width="15" height="16.375"/>
</g>
<g id="Layer_1">
	<path fill="#FFFFFF" d="M7.352-417.398c-0.181-0.399-0.201-0.764-0.153-1.104c0.685-0.507,1.04-1.376,1.192-2.532
		C8.993-421.145,9-421.533,9-422c0-0.437-0.008-0.804-0.502-0.94C8.499-422.961,8.5-422.979,8.5-423c0-2.103-1-4-2-4
		c0,0-0.5-0.5-1.5-0.5c-1.5,0-2.5,1.877-2.5,4.5c0,0.021,0.001,0.039,0.002,0.06C2.008-422.804,2-422.437,2-422
		c0,0.467,0.007,0.855,0.609,0.965c0.153,1.156,0.508,2.025,1.194,2.532c0.047,0.341,0.026,0.704-0.153,1.104
		C0.003-416.997-1.5-415.5-1.5-415.5v2h14v-2C12.5-415.5,10.997-416.997,7.352-417.398z"/>
</g>
<g id="Capa_3">
	<polygon fill="#FFFFFF" points="14.5,-425 12,-425 12,-427.5 10,-427.5 10,-425 7.5,-425 7.5,-423 10,-423 10,-420.5 12,-420.5 
		12,-423 14.5,-423 	"/>
</g>
</svg>
